<?xml version="1.0" standalone="no"?>
<!DOCTYPE svg PUBLIC "-//W3C//DTD SVG 20010904//EN"
 "http://www.w3.org/TR/2001/REC-SVG-20010904/DTD/svg10.dtd">
<svg version="1.0" xmlns="http://www.w3.org/2000/svg"
 width="645.000000pt" height="1280.000000pt" viewBox="0 0 645.000000 1280.000000"
 preserveAspectRatio="xMidYMid meet">
<metadata>
Created by potrace 1.15, written by Peter Selinger 2001-2017
</metadata>
<g transform="translate(0.000000,1280.000000) scale(0.100000,-0.100000)"
fill="#ffffff" stroke="none">
<path d="M5282 12740 c-33 -33 -65 -60 -71 -60 -26 0 -8 -20 29 -31 42 -13 50
-28 24 -50 -9 -8 -13 -21 -10 -35 9 -33 -3 -54 -30 -54 -15 0 -24 -6 -24 -16
0 -11 -5 -14 -16 -10 -18 7 -105 -50 -103 -67 3 -18 -12 -92 -21 -107 -12 -19
-46 4 -58 40 -9 26 -16 30 -46 30 -19 0 -41 3 -49 6 -10 3 -17 -1 -19 -12 -2
-12 20 -41 60 -80 34 -35 58 -65 52 -69 -20 -13 -11 -55 14 -65 22 -8 24 -12
14 -38 -9 -24 -7 -35 16 -74 33 -56 30 -71 -29 -193 -60 -120 -74 -177 -55
-213 9 -14 26 -29 40 -33 24 -7 24 -7 -8 -14 -34 -8 -62 -37 -62 -65 0 -21
-47 -66 -83 -79 -42 -16 -119 -13 -145 5 -12 8 -22 25 -22 37 0 31 -11 67 -20
67 -11 0 -1 -89 16 -133 19 -51 18 -54 -16 -49 -17 2 -30 0 -30 -6 0 -6 -22
-13 -48 -17 l-49 -6 -11 -62 c-6 -34 -15 -84 -18 -112 -7 -51 -16 -65 -46 -65
-28 0 -52 34 -77 114 -17 50 -31 78 -43 82 -10 3 -25 19 -33 35 -18 34 -40 38
-48 9 -3 -11 -12 -20 -21 -20 -18 0 -21 15 -6 25 8 5 7 11 -1 21 -10 13 -15
12 -31 -3 -12 -11 -18 -26 -15 -41 4 -19 0 -22 -17 -20 -18 3 -22 -4 -28 -47
-5 -27 -12 -68 -17 -90 -11 -46 3 -131 25 -156 8 -9 32 -24 54 -34 22 -10 40
-21 40 -25 0 -19 -31 -31 -62 -26 l-33 7 27 -15 c44 -26 88 -76 88 -101 0 -40
-23 -129 -37 -145 -11 -13 -12 -10 -7 20 4 19 11 43 15 52 5 9 9 30 9 46 0 24
-5 31 -27 35 -16 3 -36 9 -45 12 -25 10 -23 -21 2 -42 24 -21 26 -65 4 -87
-25 -25 -73 -20 -97 10 l-21 27 -17 -22 c-9 -11 -15 -30 -12 -41 4 -13 -6 -30
-31 -53 -31 -30 -36 -40 -36 -81 0 -26 5 -57 11 -69 7 -11 12 -37 13 -57 l1
-35 70 -7 c40 -4 82 -3 99 2 36 12 48 3 21 -16 -12 -9 -31 -13 -47 -10 -16 3
-42 9 -59 12 -34 7 -79 -11 -79 -33 0 -7 -9 -18 -20 -25 -11 -7 -20 -19 -20
-27 0 -7 -11 -24 -25 -37 -14 -13 -25 -32 -25 -44 0 -23 -44 -115 -60 -125 -5
-3 -10 -14 -10 -23 0 -10 -10 -22 -22 -27 -13 -6 -25 -21 -28 -35 -7 -35 -21
-55 -47 -69 -23 -12 -23 -11 -23 54 0 62 3 69 45 127 25 34 45 66 45 70 0 5
-7 20 -16 33 -8 13 -15 32 -14 42 3 24 -10 63 -21 63 -17 0 -160 -155 -157
-170 2 -10 15 -15 36 -15 48 0 39 -18 -28 -59 -50 -31 -60 -41 -54 -58 6 -21
0 -28 -83 -83 -66 -43 -91 -79 -75 -106 7 -10 12 -27 12 -37 0 -10 11 -24 24
-30 21 -9 56 -83 56 -116 0 -12 -92 -53 -130 -58 -44 -5 -37 29 16 78 26 24
44 48 40 52 -4 4 -26 16 -49 27 -28 14 -44 29 -50 50 -6 17 -11 31 -12 32 -4
6 -85 -30 -85 -37 0 -4 -15 -14 -32 -21 -18 -7 -60 -40 -93 -72 -33 -33 -74
-66 -92 -73 -18 -8 -36 -20 -40 -27 -4 -8 -41 -35 -81 -61 -62 -42 -120 -98
-146 -144 -5 -8 -1 -21 8 -31 15 -17 15 -19 1 -31 -14 -11 -20 -9 -45 18 -25
28 -36 32 -78 32 -39 0 -53 -5 -78 -28 -16 -16 -39 -34 -52 -41 -16 -9 -21
-18 -17 -32 9 -28 -4 -23 -15 6 -5 14 -18 28 -27 32 -10 4 -29 15 -43 25 -29
23 -91 16 -129 -13 -13 -11 -38 -19 -56 -19 -21 0 -40 -9 -56 -26 -24 -25 -29
-53 -30 -164 0 -33 -1 -34 -15 -16 -8 11 -14 28 -14 39 0 16 -5 18 -28 12 -15
-4 -52 -11 -82 -15 -30 -5 -63 -11 -73 -15 -16 -7 -16 -9 -2 -31 8 -13 15 -29
15 -36 -1 -12 -63 -58 -78 -58 -4 0 -6 18 -4 41 3 22 -1 46 -7 52 -6 6 -11 21
-11 33 0 32 -17 39 -47 17 -14 -10 -40 -27 -59 -39 -18 -11 -62 -50 -98 -87
-43 -45 -71 -67 -87 -67 -25 -1 -79 -41 -79 -60 0 -16 -14 -12 -28 10 -10 17
-21 20 -70 18 -31 -2 -103 1 -158 5 -101 8 -101 8 -108 -15 -12 -48 -6 -217
10 -257 14 -37 14 -42 0 -63 -10 -14 -16 -43 -16 -78 0 -48 -4 -60 -26 -81
-14 -13 -35 -39 -46 -59 -65 -109 -156 -250 -185 -286 -18 -23 -33 -53 -33
-67 0 -16 -17 -45 -45 -78 -25 -29 -50 -71 -56 -94 -6 -22 -20 -54 -30 -72
-18 -28 -19 -42 -12 -139 8 -108 8 -109 40 -129 l31 -20 -1 -170 c-1 -111 3
-194 12 -238 11 -55 11 -79 1 -126 -13 -64 -4 -94 42 -137 34 -32 152 -297
150 -338 -1 -18 -6 -53 -11 -78 -7 -30 -7 -66 -1 -105 14 -83 90 -244 145
-305 37 -41 45 -57 45 -88 0 -21 -7 -43 -15 -50 -8 -7 -15 -27 -15 -45 0 -24
-7 -37 -25 -49 -27 -17 -33 -54 -13 -74 6 -6 10 -35 9 -65 -1 -46 4 -61 37
-113 30 -47 37 -65 32 -89 -9 -42 -37 -95 -70 -130 -34 -38 -106 -176 -120
-232 -8 -32 -22 -51 -58 -80 -64 -52 -70 -60 -82 -123 -6 -30 -13 -66 -16 -78
-7 -34 -49 -72 -79 -72 -19 0 -25 -5 -25 -21 0 -12 -16 -46 -35 -77 -28 -47
-36 -73 -45 -147 -11 -86 -50 -226 -71 -251 -5 -7 -46 -15 -89 -19 -44 -4 -99
-13 -122 -19 -37 -12 -43 -17 -55 -59 -7 -25 -22 -52 -33 -60 -19 -13 -19 -17
-6 -48 7 -19 16 -62 19 -96 6 -53 4 -64 -12 -75 -10 -7 -25 -27 -35 -45 -9
-18 -25 -37 -35 -43 -14 -7 -21 -26 -26 -72 -7 -56 -9 -60 -21 -43 -8 10 -14
31 -14 46 0 15 -4 31 -10 34 -6 4 -10 -14 -10 -47 0 -29 -9 -77 -20 -106 -26
-68 -30 -268 -5 -259 8 4 17 2 20 -3 4 -6 -1 -10 -9 -10 -22 0 -29 -18 -32
-74 -1 -32 3 -58 14 -74 10 -16 17 -49 17 -91 1 -36 11 -97 23 -136 12 -38 31
-104 43 -145 27 -93 43 -125 85 -173 27 -29 34 -46 34 -80 l1 -42 20 25 21 25
24 -28 c17 -20 24 -40 24 -71 0 -23 4 -46 9 -52 4 -5 14 -38 20 -74 15 -80 30
-120 46 -120 6 0 29 -15 50 -33 l38 -33 -9 -69 c-9 -66 -10 -69 -44 -80 -27
-9 -36 -19 -43 -46 -18 -71 -19 -119 -3 -143 13 -20 15 -60 14 -245 -1 -121 1
-224 5 -228 4 -3 7 -28 7 -54 0 -41 4 -51 26 -66 15 -9 33 -32 40 -50 8 -18
22 -33 30 -33 19 0 99 -82 121 -124 11 -21 13 -43 9 -77 -6 -42 -3 -54 25 -99
42 -68 70 -146 64 -173 -4 -15 4 -35 25 -64 30 -40 34 -43 69 -37 34 5 43 2
85 -35 26 -23 53 -41 61 -41 21 0 45 -41 45 -77 0 -29 3 -33 26 -33 14 0 62
-6 107 -14 45 -8 112 -20 149 -26 83 -13 157 -36 183 -58 12 -9 35 -37 52 -62
24 -35 44 -51 89 -69 75 -31 84 -38 84 -68 0 -25 0 -25 67 -18 38 3 119 8 180
10 130 5 140 9 254 99 44 35 92 69 107 77 15 7 53 30 84 51 79 52 344 153 441
168 78 12 182 5 193 -11 7 -13 75 0 95 17 9 8 18 12 21 9 3 -3 13 4 23 15 10
11 22 20 27 20 5 0 24 11 42 25 18 14 44 25 58 25 27 0 58 27 58 51 0 24 22
39 55 39 23 0 35 7 47 28 10 16 15 38 12 49 -7 27 23 90 48 104 16 8 19 18 14
40 -3 15 -1 31 4 34 11 7 61 158 94 287 14 54 36 119 50 145 13 27 29 69 36
93 6 25 25 66 40 92 78 127 131 267 137 363 2 40 22 128 44 205 65 219 75 256
119 450 23 102 48 205 55 230 8 25 16 90 20 146 3 55 10 116 15 135 27 103 50
171 78 229 17 36 52 121 77 190 25 69 64 170 85 225 21 55 41 116 45 135 4 19
18 56 31 83 14 26 32 82 40 125 18 88 43 179 85 304 31 96 66 228 79 298 35
199 137 498 237 696 64 127 66 135 74 230 13 164 41 267 113 414 27 57 36 87
36 128 0 33 7 67 20 92 31 61 156 402 197 535 8 28 28 73 43 100 16 29 37 92
49 150 26 123 40 179 107 420 l53 190 -19 30 c-11 18 -20 56 -23 93 -2 34 -9
68 -15 74 -7 7 -12 19 -12 28 0 9 -7 25 -15 36 -23 31 -17 68 24 146 22 41 48
101 59 133 11 33 34 90 51 127 33 72 30 70 149 97 24 5 46 12 49 15 3 3 -11
24 -31 46 -27 30 -36 49 -34 68 2 18 8 26 18 25 9 -2 24 13 35 35 11 20 27 48
37 61 10 13 18 35 18 50 1 14 7 37 15 51 19 34 19 39 -9 49 -34 14 -40 69 -16
140 l20 55 -22 23 c-13 12 -38 24 -56 26 -42 7 -62 23 -62 53 0 12 -4 26 -10
29 -17 10 -11 68 10 100 23 35 25 63 5 89 -8 11 -15 30 -15 43 0 13 -9 44 -20
68 -15 32 -19 55 -14 83 4 28 2 41 -10 51 -46 38 21 137 88 133 19 -1 37 2 41
8 8 14 82 13 91 -1 4 -6 6 -36 6 -65 0 -49 3 -57 30 -77 28 -20 30 -25 25 -69
-6 -44 -3 -50 25 -77 23 -22 31 -38 32 -69 3 -48 37 -92 71 -92 27 0 45 -18
45 -47 0 -28 6 -28 48 -3 21 13 35 31 39 51 4 20 14 34 30 40 19 7 23 14 18
30 -5 15 -2 22 14 26 16 4 21 13 21 42 0 40 49 185 79 236 23 39 61 173 61
214 0 16 -7 34 -15 41 -8 7 -15 19 -15 26 0 8 -9 23 -20 34 -11 11 -20 27 -20
36 0 9 -16 34 -35 56 -20 21 -47 63 -62 94 -14 30 -29 57 -34 60 -5 3 -9 20
-9 37 -1 18 -7 43 -15 57 -8 14 -15 39 -15 55 0 17 -9 58 -20 92 -21 67 -27
173 -15 266 7 52 5 60 -15 82 -21 23 -22 28 -13 102 8 62 7 82 -3 98 -10 13
-14 51 -14 115 0 94 -8 143 -35 210 -7 19 -28 79 -45 134 -24 77 -29 109 -24
146 7 54 -7 89 -55 134 -29 28 -31 34 -31 106 0 42 -3 80 -7 84 -5 4 -13 24
-18 44 -6 20 -17 38 -25 38 -8 1 -19 2 -24 3 -5 0 -3 7 3 14 13 16 5 27 -20
27 -19 0 -29 19 -29 55 0 13 -5 27 -11 30 -6 4 -8 13 -5 21 3 9 -1 14 -14 14
-10 0 -22 5 -25 10 -12 19 -33 10 -40 -17 l-7 -28 -10 25 c-5 14 -7 40 -3 58
6 30 4 32 -24 32 -35 0 -48 15 -30 36 9 11 8 18 -5 32 -18 21 -21 39 -6 44 14
4 -37 150 -58 166 -10 8 -29 11 -45 8 -24 -5 -30 -1 -44 32 -22 48 -42 72 -61
72 -11 0 -13 -8 -8 -30 7 -38 -16 -41 -32 -5 -6 13 -23 27 -37 31 -23 6 -26
10 -20 33 9 33 12 36 28 23 7 -6 23 -9 35 -5 12 3 28 0 36 -6 26 -22 25 4 -3
87 -26 75 -61 132 -82 132 -5 0 -35 -27 -67 -60z"/>
<path d="M4769 11971 c-11 -24 -18 -29 -34 -25 -20 7 -20 6 -1 -15 26 -29 31
-27 45 20 15 50 8 62 -10 20z"/>
<path d="M4455 11660 c-3 -6 -3 -20 0 -31 7 -20 4 -21 -35 -14 -31 5 -41 4
-35 -4 4 -7 2 -17 -4 -24 -7 -9 -3 -27 12 -60 25 -54 44 -63 110 -53 42 7 43
7 42 44 -2 41 -23 120 -38 140 -11 15 -43 16 -52 2z"/>
<path d="M4522 11423 c4 -22 43 -25 43 -3 0 8 -11 16 -23 18 -19 3 -23 0 -20
-15z"/>
<path d="M4036 10935 c-8 -33 -1 -45 29 -45 l24 0 -20 35 c-12 19 -22 35 -24
35 -2 0 -6 -11 -9 -25z"/>
<path d="M3990 10840 c0 -5 5 -10 10 -10 6 0 10 5 10 10 0 6 -4 10 -10 10 -5
0 -10 -4 -10 -10z"/>
<path d="M4046 10801 c-4 -5 3 -15 15 -21 28 -15 34 -7 10 14 -12 11 -21 13
-25 7z"/>
<path d="M3854 10466 c-3 -8 -4 -25 -2 -38 2 -17 8 -22 23 -20 33 6 38 18 20
46 -19 29 -33 33 -41 12z"/>
<path d="M5986 8441 c-9 -10 -14 -25 -11 -33 3 -8 -5 -24 -20 -36 -14 -12 -25
-31 -25 -42 0 -11 -7 -23 -15 -27 -18 -6 -48 -60 -41 -71 5 -9 -32 -122 -46
-140 -6 -7 -8 -15 -4 -19 7 -8 2 -14 59 72 25 39 58 101 72 138 14 38 34 86
45 107 32 62 23 92 -14 51z"/>
</g>
</svg>
